<?xml version="1.0" encoding="UTF-8" standalone="no"?>
<!-- Created with Inkscape (http://www.inkscape.org/) -->

<svg
   version="1.1"
   id="svg2"
   width="708.96002"
   height="859.93335"
   viewBox="0 0 708.96002 859.93335"
   sodipodi:docname="vector file.eps"
   xmlns:inkscape="http://www.inkscape.org/namespaces/inkscape"
   xmlns:sodipodi="http://sodipodi.sourceforge.net/DTD/sodipodi-0.dtd"
   xmlns="http://www.w3.org/2000/svg"
   xmlns:svg="http://www.w3.org/2000/svg">
  <defs
     id="defs6" />
  <sodipodi:namedview
     id="namedview4"
     pagecolor="#ffffff"
     bordercolor="#000000"
     borderopacity="0.25"
     inkscape:showpageshadow="2"
     inkscape:pageopacity="0.0"
     inkscape:pagecheckerboard="0"
     inkscape:deskcolor="#d1d1d1" />
  <g
     id="g8"
     inkscape:groupmode="layer"
     inkscape:label="ink_ext_XXXXXX"
     transform="matrix(1.3333333,0,0,-1.3333333,0,859.93333)">
    <g
       id="g10"
       transform="scale(0.1)">
      <path
         d="M 5144.85,4294.39 C 4996.2,4227.54 4948.23,4119.88 4926.89,3995.66 4856.92,3588.42 4788.47,3180.92 4719.6,2773.48 4625.64,2217.55 4531.76,1661.6 4437.96,1105.64 4382.12,774.711 4326.5,443.762 4271.49,117.059 c 28.69,-28.1098 52.94,-34.1098 100.94,0.691 253.67,1371.64 510.62,2761.05 772.42,4176.64 z M 1024.88,117.211 C 970.371,443.422 915.516,771.32 860.797,1099.23 719.457,1946.24 578.105,2793.24 436.934,3640.28 c -23.051,138.3 -43.758,277.02 -68.223,415.07 -23.961,135.18 -92.801,209.89 -209.91,218.04 256.422,-1394.12 512.14,-2784.42 767.125,-4170.761 41.758,-10.2188 64.765,-15.297 98.954,14.582 z m 431.77,3203.219 c 227.78,3.14 439.9,2.81 666.88,-22.66 0,234.91 1.69,458.14 -0.55,681.33 -1.67,165.97 -165.49,312.57 -354.07,321.86 -189.1,9.33 -363.36,-123.87 -369.52,-299.69 -7.85,-224.09 32,-445.49 57.26,-680.84 z m 2396.67,1.27 c 17.83,244.69 34.94,474.6 50.98,704.58 2.79,40.04 -14.25,74.24 -37.64,106.6 -93.48,129.39 -279.85,191.27 -440.79,145 -153.12,-44.03 -248.44,-170.87 -255.62,-345.46 -6.47,-157.45 -10.87,-315 -13.71,-472.56 -0.85,-47.2 -20.03,-97.44 21.03,-152.18 216.1,17.82 438.82,14.43 675.75,14.02 z M 2956.6,1715.74 c 44.55,47.11 37.77,87.2 37.93,125.2 0.6,150.77 -2.24,301.6 1.37,452.28 1.69,70.9 -17.47,127.67 -64.29,181.68 -79.34,91.52 -125.67,201.44 -153.28,318.79 -10.5,44.69 -19.77,88.94 -53.92,121.3 -131.49,35.97 -177.16,11.59 -205.95,-114.91 -18.81,-82.66 -37,-166.46 -95.57,-229.99 -94.81,-102.84 -122.01,-224.78 -119.59,-358.89 2.28,-126.19 1.52,-252.42 2.86,-378.63 0.4,-37.89 -6.63,-77.8 29.42,-118.71 204.87,-62.54 416.78,-67.12 621.02,1.88 z m 59.61,1572.68 c 0,251.04 10.06,482.39 -3.3,712.39 -10.05,173.25 -179.51,300.41 -362.03,299.62 -172.48,-0.75 -357.83,-127.16 -364.96,-273.8 -11.85,-243.69 -3.23,-488.38 -3.23,-742.68 249.47,-49.11 481.26,-51.07 733.52,4.47 z M 2320.25,1549.09 c 0,-493.74 0,-971.199 0,-1447.699 225.06,0 440.29,0 654.44,0 0,485.257 0,962.139 0,1449.599 -221.94,-58.6 -432.97,-57.82 -654.44,-1.9 z M 3145.2,99.1719 c 160.65,0 306.61,0 467.3,0 65.01,727.4691 129.6,1450.2081 196.2,2195.4081 -236.49,-92.9 -448.46,-63.78 -656.77,-0.8 0,-164.65 0,-315.26 0,-474.46 133.35,64.48 203.85,186.32 310.03,257.59 90.14,-43.79 83.99,-95.46 39.84,-157.88 -93.11,-131.67 -229.89,-212.94 -356.6,-303.82 0,-506.52 0,-1006.647 0,-1516.0381 z M 1484.94,2294.73 c 66.02,-746.15 130.01,-1469.25 194.08,-2193.328 165.22,0 313.9,0 469.26,0 0,506.289 0,1005.718 0,1513.958 -121.51,78.23 -242.65,161.89 -335.16,278.26 -38.38,48.26 -99.67,102.69 -31.04,161.23 64.52,55.04 104.69,-12.74 145.3,-54.71 64.01,-66.14 123.03,-139.1 218.81,-175.93 0,160.38 0,311.18 0,471.9 -217.35,-80.24 -426.68,-79.88 -661.25,-1.38 z m -184.3,1037.69 c -17.69,212.8 -32.76,425.47 -53.83,637.55 -16.66,167.53 -120.43,277.03 -288.521,316.35 -149.469,34.95 -321.121,-33.73 -403.441,-161.97 -25.121,-39.13 -39.45,-79.51 -30.981,-128.85 43.246,-252.02 83.446,-504.55 125.793,-756.73 150.235,-894.62 300.676,-1789.21 451.65,-2683.7 25.48,-150.988 53.97,-301.461 81.4,-453.961 117.51,0 224.43,0 336.62,0 11.31,125.571 -15.54,242.473 -24.86,359.84 C 1448.72,1037.4 1398,1613.46 1350.6,2189.8 c -8.78,106.7 -30.87,201.72 -109.16,285.55 -64.16,68.7 -90.93,163.85 -112.96,257 -24.65,104.19 -35.58,210.85 -106.95,302.43 -45.475,58.36 -39.292,138.84 -16.76,215.53 81.77,64.73 191.23,29.15 295.87,82.11 z M 4107.86,99.1016 c 7.04,17.6684 14.53,29.9684 16.81,43.1794 54.14,313.989 108.29,627.969 161.3,942.149 163.12,966.69 325.49,1933.5 489.27,2900.07 9.29,54.88 5.82,102.69 -27.9,149.04 -89.15,122.54 -266.79,191.26 -408.76,155.64 -164,-41.14 -262.84,-150.93 -282.35,-324.82 -21.09,-187.96 -36.24,-376.59 -53.73,-564.96 -2.57,-27.8 -6.65,-56.29 14.67,-78.32 83.41,-49.88 192.55,-3.82 275.96,-81.24 23.67,-86.24 24.04,-173.19 -45.6,-248.81 -37.82,-41.06 -47.22,-91.31 -56.69,-143.82 -21.71,-120.55 -38.47,-246.31 -120.43,-342.76 -81.85,-96.33 -113.61,-204.67 -124.15,-326.62 -57.6,-666.65 -117.65,-1333.088 -176.53,-1999.619 -2.38,-27.063 -11.49,-56.32 15.59,-79.1094 106.81,0 214.38,0 322.54,0 z M 638.891,4731.06 C 511.293,4649.5 371.66,4578.08 355.438,4402 c 24.332,-49.47 59.101,-92.05 109.222,-128.08 289.82,251.64 575.45,233.54 854.65,-26.91 122.21,130.3 258.86,199.07 439.78,196.68 183.62,-2.42 319.11,-84.83 445.55,-205.44 126.09,133.04 266.95,214.78 448.54,214.24 180.36,-0.54 317.59,-90.09 439.35,-207.11 339.69,266.19 477.59,268 899.82,13 128.96,89.42 257.28,193.06 428.2,196.77 171.25,3.73 297.53,-105.2 436.59,-196.76 36.87,64.9 101.65,93.37 110.56,169.39 -4.51,15.11 -4.91,39.99 -17.39,54.39 -72.66,83.83 -85.36,178.86 -61.9,283.14 2.94,13.05 -1.13,27.9 -3,41.78 -30.91,229.87 -180.97,310.9 -385.67,206.8 -33.59,-17.08 -64.13,-27.17 -99.46,-5.85 -42.88,47.58 -13.22,89.22 10.87,132.6 44.49,80.17 66.53,163.02 15.51,248.95 -33.99,57.26 -86.53,79.59 -151.79,71.66 -59.63,-7.25 -76.69,-51.44 -90.01,-101.77 -13.37,-50.53 -27,-102.21 -50.03,-148.66 -35.02,-70.6 -85.74,-88.19 -158.78,-14.39 34.92,147.22 94.38,303.17 -40.01,446.06 -142.81,151.85 -303.73,67.11 -440.8,43.3 -61.95,33.6 -67.27,78.79 -80.87,117.28 -46.64,131.97 -135.67,209.74 -276.48,223.35 -144.83,14 -251.4,-45.83 -322.17,-171.49 -24.01,-42.62 -43.06,-89.81 -101.12,-96.83 -56.42,11.88 -70.19,52.53 -68.8,102.22 1.72,61.15 -15.87,118.42 -37.72,173.67 -70.36,178.03 -304.84,292.32 -487.56,240.01 -156.89,-44.91 -227.64,-198.07 -184.96,-406.93 120.62,-32.25 257.09,-46.3 307.7,-196.78 -14.37,-38.46 -33.37,-69.83 -80.45,-78.86 -59.94,8.11 -93.38,71.2 -151.15,85.18 -73.05,17.69 -154.82,50.59 -209.88,-31.37 -37.95,-56.49 13.11,-170.03 89.2,-214.77 36.82,-21.65 76.61,-33.44 120.55,-30.1 34.5,2.62 70.31,7.05 99.31,-18.25 25.52,-38.99 20.11,-73.29 -15.29,-109.25 -103.71,-45.21 -208.73,-38.84 -304.48,29.53 -157.88,112.73 -177.85,273.03 -136.44,446.23 -180.13,63.17 -383.18,-20.24 -491.63,-194.91 -27.02,-43.52 -40.37,-99.56 -106.66,-117.78 -120.531,11.67 -266.973,104.69 -355.453,-69.21 -45.317,-89.06 2.297,-189.98 116.625,-274.24 298.168,8.63 396.208,-41.35 428.898,-219.5 -13.55,-39.51 -38.96,-64.56 -84.14,-65.02 -35.86,10.66 -58.02,38.3 -80.09,65.36 -46.67,57.23 -106.7,80.96 -177.668,63.01 -101.067,-25.56 -179.035,-9.57 -249.785,79.04 -65.504,82.04 -249.25,68.66 -326.442,-8.64 -75.648,-75.77 -73.422,-191.78 5.36,-279.24 275.57,130.96 275.57,130.96 305.246,3.56 z M 0,4419.08 c 73.5664,42.62 137.711,10.63 182.672,44.27 36.449,31.12 36.226,69.61 37.914,103.48 -218.08209,352.97 -116.777,582.05 293.004,674.44 79.183,357.46 116.457,387.48 492.41,387.87 78.73,113.44 174.63,216.59 318.31,265.71 139.42,47.67 282.32,35.54 434.19,30.97 3.99,258.89 93.85,466.97 361.45,513.37 296.65,51.44 512.2,-93.83 659.56,-363.32 135.26,101.33 281.37,139.81 439.5,102.35 159.69,-37.83 274.14,-135.54 338.07,-289.09 123.7,-6.02 243.1,22.76 357.43,-29.99 114.49,-52.83 179.86,-151.15 244.23,-246.38 328.29,29.73 401.53,-28.76 472.07,-371.03 304.09,-71.49 394.77,-179.9 416.42,-499.94 6.52,-96.42 48.48,-181.36 76.83,-263.95 51.61,-42.57 118.15,-16.85 193.15,-62.75 C 5037.49,2946.11 4757.78,1477.13 4476.51,0 3250.18,0 2032.13,0 799.688,0 525.984,1469.37 246.551,2940.68 0,4419.08"
         style="fill:#549ddb;fill-opacity:1;fill-rule:nonzero;stroke:none"
         id="path12" />
    </g>
  </g>
</svg>
